<svg aria-hidden="true" style="position: absolute; width: 0; height: 0; overflow: hidden;" version="1.1" xmlns="http://www.w3.org/2000/svg" xmlns:xlink="http://www.w3.org/1999/xlink">
<defs>
<symbol id="icon-bi_search" viewBox="0 0 32 32">
<path fill="#92929d" style="fill: var(--color1, #92929d)" d="M23.484 20.688c1.937-2.643 2.804-5.919 2.429-9.174s-1.966-6.248-4.453-8.38c-2.487-2.132-5.688-3.247-8.962-3.121s-6.379 1.484-8.695 3.801c-2.316 2.317-3.671 5.424-3.795 8.698s0.993 6.474 3.127 8.96c2.134 2.486 5.128 4.074 8.383 4.447s6.531-0.497 9.172-2.435h-0.002c0.060 0.080 0.124 0.156 0.196 0.23l7.7 7.7c0.375 0.375 0.884 0.586 1.414 0.586s1.040-0.21 1.415-0.585c0.375-0.375 0.586-0.884 0.586-1.414s-0.21-1.039-0.585-1.415l-7.7-7.7c-0.072-0.072-0.148-0.137-0.23-0.198zM24 13c0 1.445-0.284 2.875-0.837 4.21s-1.363 2.547-2.384 3.569-2.234 1.832-3.569 2.384c-1.335 0.553-2.765 0.837-4.209 0.837s-2.875-0.284-4.21-0.837c-1.335-0.553-2.547-1.363-3.569-2.384s-1.832-2.234-2.385-3.569c-0.553-1.335-0.837-2.765-0.837-4.21 0-2.917 1.159-5.715 3.222-7.778s4.861-3.222 7.778-3.222c2.917 0 5.715 1.159 7.778 3.222s3.222 4.861 3.222 7.778z"></path>
</symbol>
<symbol id="icon-bi_menu" viewBox="0 0 32 32">
<path fill="#fff" style="fill: var(--color1, #fff)" d="M4 25c0-0.265 0.105-0.52 0.293-0.707s0.442-0.293 0.707-0.293h22c0.265 0 0.52 0.105 0.707 0.293s0.293 0.442 0.293 0.707-0.105 0.52-0.293 0.707c-0.187 0.188-0.442 0.293-0.707 0.293h-22c-0.265 0-0.52-0.105-0.707-0.293s-0.293-0.442-0.293-0.707zM4 19c0-0.265 0.105-0.52 0.293-0.707s0.442-0.293 0.707-0.293h22c0.265 0 0.52 0.105 0.707 0.293s0.293 0.442 0.293 0.707-0.105 0.52-0.293 0.707c-0.187 0.188-0.442 0.293-0.707 0.293h-22c-0.265 0-0.52-0.105-0.707-0.293s-0.293-0.442-0.293-0.707zM4 13c0-0.265 0.105-0.52 0.293-0.707s0.442-0.293 0.707-0.293h22c0.265 0 0.52 0.105 0.707 0.293s0.293 0.442 0.293 0.707-0.105 0.52-0.293 0.707c-0.187 0.188-0.442 0.293-0.707 0.293h-22c-0.265 0-0.52-0.105-0.707-0.293s-0.293-0.442-0.293-0.707zM4 7c0-0.265 0.105-0.52 0.293-0.707s0.442-0.293 0.707-0.293h22c0.265 0 0.52 0.105 0.707 0.293s0.293 0.442 0.293 0.707-0.105 0.52-0.293 0.707c-0.187 0.188-0.442 0.293-0.707 0.293h-22c-0.265 0-0.52-0.105-0.707-0.293s-0.293-0.442-0.293-0.707z"></path>
</symbol>
<symbol id="icon-bi_arrow-clockwise" viewBox="0 0 32 32">
<path fill="#82c43c" style="fill: var(--color1, #82c43c)" d="M16 6c-2.161 0.001-4.264 0.702-5.994 1.998s-2.992 3.118-3.6 5.192c-0.607 2.074-0.526 4.289 0.231 6.314s2.15 3.749 3.97 4.915 3.968 1.712 6.124 1.555c2.156-0.157 4.202-1.008 5.833-2.426s2.759-3.326 3.215-5.439c0.456-2.113 0.215-4.316-0.687-6.28-0.098-0.239-0.1-0.506-0.006-0.747s0.279-0.435 0.513-0.542c0.235-0.108 0.502-0.121 0.746-0.036s0.445 0.261 0.563 0.491c1.082 2.357 1.371 5.001 0.824 7.537s-1.901 4.825-3.858 6.527c-1.958 1.701-4.414 2.723-7 2.911s-5.165-0.467-7.348-1.867c-2.183-1.4-3.854-3.469-4.763-5.899s-1.005-5.088-0.276-7.577 2.245-4.675 4.321-6.23c2.076-1.555 4.599-2.396 7.193-2.396v2z"></path>
<path fill="#82c43c" style="fill: var(--color1, #82c43c)" d="M16 8.932v-7.864c0-0.095 0.027-0.188 0.078-0.268s0.124-0.144 0.21-0.184c0.086-0.040 0.182-0.055 0.276-0.043s0.183 0.051 0.256 0.112l4.72 3.932c0.24 0.2 0.24 0.568 0 0.768l-4.72 3.932c-0.073 0.061-0.162 0.1-0.256 0.112s-0.19-0.003-0.276-0.043c-0.086-0.040-0.159-0.104-0.21-0.184s-0.078-0.173-0.078-0.268z"></path>
</symbol>
<symbol id="icon-bell" viewBox="0 0 32 32">
<path d="M16 32c1.061 0 2.078-0.421 2.828-1.172s1.172-1.768 1.172-2.828h-8c0 1.061 0.421 2.078 1.172 2.828s1.768 1.172 2.828 1.172zM16 3.836l-1.594 0.322c-1.808 0.368-3.433 1.35-4.601 2.779s-1.805 3.218-1.805 5.063c0 1.256-0.268 4.394-0.918 7.484-0.32 1.534-0.752 3.132-1.326 4.516h20.488c-0.574-1.384-1.004-2.98-1.326-4.516-0.65-3.090-0.918-6.228-0.918-7.484-0.001-1.845-0.639-3.633-1.806-5.062s-2.792-2.41-4.6-2.778l-1.594-0.324zM28.44 24c0.446 0.894 0.962 1.602 1.56 2h-28c0.598-0.398 1.114-1.106 1.56-2 1.8-3.6 2.44-10.24 2.44-12 0-4.84 3.44-8.88 8.010-9.802-0.028-0.278 0.003-0.559 0.090-0.824s0.229-0.51 0.417-0.717c0.188-0.207 0.416-0.373 0.672-0.486s0.532-0.172 0.811-0.172c0.28 0 0.556 0.059 0.811 0.172s0.484 0.279 0.672 0.486 0.329 0.452 0.417 0.717c0.087 0.266 0.118 0.546 0.090 0.824 2.261 0.46 4.293 1.687 5.752 3.473s2.257 4.022 2.258 6.329c0 1.76 0.64 8.4 2.44 12z"></path>
</symbol>
<symbol id="icon-bi_briefcase" viewBox="0 0 32 32">
<path fill="#92929d" style="fill: var(--color3, #92929d)" d="M13 2c-0.796 0-1.559 0.316-2.121 0.879s-0.879 1.326-0.879 2.121v1h-7c-0.796 0-1.559 0.316-2.121 0.879s-0.879 1.326-0.879 2.121v16c0 0.796 0.316 1.559 0.879 2.121s1.326 0.879 2.121 0.879h26c0.796 0 1.559-0.316 2.121-0.879s0.879-1.326 0.879-2.121v-16c0-0.796-0.316-1.559-0.879-2.121s-1.326-0.879-2.121-0.879h-7v-1c0-0.796-0.316-1.559-0.879-2.121s-1.326-0.879-2.121-0.879h-6zM13 4h6c0.265 0 0.52 0.105 0.707 0.293s0.293 0.442 0.293 0.707v1h-8v-1c0-0.265 0.105-0.52 0.293-0.707s0.442-0.293 0.707-0.293zM16.772 17.828l13.228-3.526v10.698c0 0.265-0.105 0.52-0.293 0.707s-0.442 0.293-0.707 0.293h-26c-0.265 0-0.52-0.105-0.707-0.293s-0.293-0.442-0.293-0.707v-10.7l13.228 3.528c0.506 0.135 1.038 0.135 1.544 0zM3 8h26c0.265 0 0.52 0.105 0.707 0.293s0.293 0.442 0.293 0.707v3.232l-13.742 3.664c-0.169 0.045-0.347 0.045-0.516 0l-13.742-3.664v-3.232c0-0.265 0.105-0.52 0.293-0.707s0.442-0.293 0.707-0.293z"></path>
</symbol>
<symbol id="icon-bi_calendar4-range" viewBox="0 0 32 32">
<path fill="#92929d" style="fill: var(--color3, #92929d)" d="M7 0c0.265 0 0.52 0.105 0.707 0.293s0.293 0.442 0.293 0.707v1h16v-1c0-0.265 0.105-0.52 0.293-0.707s0.442-0.293 0.707-0.293 0.52 0.105 0.707 0.293c0.188 0.188 0.293 0.442 0.293 0.707v1h2c1.061 0 2.078 0.421 2.828 1.172s1.172 1.768 1.172 2.828v22c0 1.061-0.421 2.078-1.172 2.828s-1.768 1.172-2.828 1.172h-24c-1.061 0-2.078-0.421-2.828-1.172s-1.172-1.768-1.172-2.828v-22c0-1.061 0.421-2.078 1.172-2.828s1.768-1.172 2.828-1.172h2v-1c0-0.265 0.105-0.52 0.293-0.707s0.442-0.293 0.707-0.293zM4 4c-0.53 0-1.039 0.211-1.414 0.586s-0.586 0.884-0.586 1.414v2h28v-2c0-0.53-0.211-1.039-0.586-1.414s-0.884-0.586-1.414-0.586h-24zM30 10h-28v18c0 0.53 0.211 1.039 0.586 1.414s0.884 0.586 1.414 0.586h24c0.53 0 1.039-0.211 1.414-0.586s0.586-0.884 0.586-1.414v-18z"></path>
<path fill="#92929d" style="fill: var(--color3, #92929d)" d="M18 15c0-0.265 0.105-0.52 0.293-0.707s0.442-0.293 0.707-0.293h11v4h-11c-0.265 0-0.52-0.105-0.707-0.293s-0.293-0.442-0.293-0.707v-2zM14 21v2c0 0.265-0.105 0.52-0.293 0.707s-0.442 0.293-0.707 0.293h-11v-4h11c0.265 0 0.52 0.105 0.707 0.293s0.293 0.442 0.293 0.707z"></path>
</symbol>
<symbol id="icon-bi_check2-circle" viewBox="0 0 32 32">
<path fill="#fff" style="fill: var(--color2, #fff)" d="M5 16c-0-1.931 0.508-3.828 1.473-5.501s2.354-3.061 4.026-4.027c1.672-0.966 3.569-1.474 5.5-1.474s3.828 0.508 5.5 1.474c0.23 0.13 0.501 0.165 0.756 0.096s0.472-0.236 0.604-0.465c0.132-0.229 0.168-0.5 0.101-0.756s-0.233-0.474-0.461-0.607c-2.478-1.431-5.359-2.004-8.197-1.63s-5.472 1.673-7.495 3.696-3.323 4.658-3.697 7.495c-0.374 2.837 0.199 5.718 1.63 8.197s3.639 4.415 6.283 5.511c2.644 1.095 5.575 1.288 8.339 0.547s5.207-2.372 6.949-4.642c1.742-2.27 2.687-5.052 2.687-7.913 0-0.265-0.105-0.52-0.293-0.707s-0.442-0.293-0.707-0.293c-0.265 0-0.52 0.105-0.707 0.293s-0.293 0.442-0.293 0.707c0 2.917-1.159 5.715-3.222 7.778s-4.861 3.222-7.778 3.222c-2.917 0-5.715-1.159-7.778-3.222s-3.222-4.861-3.222-7.778z"></path>
<path fill="#fff" style="fill: var(--color2, #fff)" d="M30.708 6.708c0.093-0.093 0.167-0.203 0.217-0.325s0.076-0.252 0.076-0.383-0.026-0.262-0.076-0.383c-0.050-0.122-0.124-0.232-0.217-0.325s-0.203-0.167-0.325-0.217c-0.121-0.050-0.252-0.076-0.383-0.076s-0.262 0.026-0.383 0.076c-0.121 0.050-0.232 0.124-0.325 0.217l-13.292 13.294-5.292-5.294c-0.093-0.093-0.203-0.167-0.325-0.217s-0.252-0.076-0.383-0.076c-0.132 0-0.262 0.026-0.383 0.076s-0.232 0.124-0.325 0.217c-0.093 0.093-0.167 0.203-0.217 0.325s-0.076 0.252-0.076 0.383c0 0.132 0.026 0.262 0.076 0.383s0.124 0.232 0.217 0.325l6 6c0.093 0.093 0.203 0.167 0.325 0.217s0.252 0.076 0.383 0.076c0.132 0 0.262-0.026 0.383-0.076s0.232-0.124 0.325-0.217l14-14z"></path>
</symbol>
<symbol id="icon-bi_clipboard-check" viewBox="0 0 32 32">
<path fill="#92929d" style="fill: var(--color3, #92929d)" d="M21.708 14.292c0.093 0.093 0.167 0.203 0.217 0.325s0.076 0.252 0.076 0.383c0 0.132-0.026 0.262-0.076 0.383s-0.124 0.232-0.217 0.325l-6 6c-0.093 0.093-0.203 0.167-0.325 0.217s-0.252 0.076-0.383 0.076c-0.132 0-0.262-0.026-0.383-0.076s-0.232-0.124-0.325-0.217l-3-3c-0.093-0.093-0.167-0.203-0.217-0.325s-0.076-0.252-0.076-0.383 0.026-0.262 0.076-0.383c0.050-0.121 0.124-0.232 0.217-0.325 0.188-0.188 0.442-0.293 0.708-0.293 0.132 0 0.262 0.026 0.383 0.076s0.232 0.124 0.325 0.217l2.292 2.294 5.292-5.294c0.093-0.093 0.203-0.167 0.325-0.217s0.252-0.076 0.383-0.076 0.262 0.026 0.383 0.076c0.121 0.050 0.232 0.124 0.325 0.217z"></path>
<path fill="#92929d" style="fill: var(--color3, #92929d)" d="M8 3h-2c-1.061 0-2.078 0.421-2.828 1.172s-1.172 1.768-1.172 2.828v21c0 1.061 0.421 2.078 1.172 2.828s1.768 1.172 2.828 1.172h20c1.061 0 2.078-0.421 2.828-1.172s1.172-1.768 1.172-2.828v-21c0-1.061-0.421-2.078-1.172-2.828s-1.768-1.172-2.828-1.172h-2v2h2c0.53 0 1.039 0.211 1.414 0.586s0.586 0.884 0.586 1.414v21c0 0.53-0.211 1.039-0.586 1.414s-0.884 0.586-1.414 0.586h-20c-0.53 0-1.039-0.211-1.414-0.586s-0.586-0.884-0.586-1.414v-21c0-0.53 0.211-1.039 0.586-1.414s0.884-0.586 1.414-0.586h2v-2z"></path>
<path fill="#92929d" style="fill: var(--color3, #92929d)" d="M19 2c0.265 0 0.52 0.105 0.707 0.293s0.293 0.442 0.293 0.707v2c0 0.265-0.105 0.52-0.293 0.707s-0.442 0.293-0.707 0.293h-6c-0.265 0-0.52-0.105-0.707-0.293s-0.293-0.442-0.293-0.707v-2c0-0.265 0.105-0.52 0.293-0.707s0.442-0.293 0.707-0.293h6zM13 0c-0.796 0-1.559 0.316-2.121 0.879s-0.879 1.326-0.879 2.121v2c0 0.796 0.316 1.559 0.879 2.121s1.326 0.879 2.121 0.879h6c0.796 0 1.559-0.316 2.121-0.879s0.879-1.326 0.879-2.121v-2c0-0.796-0.316-1.559-0.879-2.121s-1.326-0.879-2.121-0.879h-6z"></path>
</symbol>
<symbol id="icon-bi_coin" viewBox="0 0 32 32">
<path fill="#92929d" style="fill: var(--color3, #92929d)" d="M11 19.022c0.152 1.908 1.66 3.394 4.364 3.57v1.408h1.2v-1.418c2.8-0.196 4.436-1.692 4.436-3.864 0-1.974-1.252-2.992-3.49-3.52l-0.946-0.224v-3.834c1.2 0.136 1.964 0.792 2.148 1.7h2.104c-0.152-1.838-1.728-3.276-4.252-3.432v-1.408h-1.2v1.438c-2.39 0.234-4.020 1.672-4.020 3.706 0 1.8 1.212 2.944 3.226 3.414l0.794 0.196v4.068c-1.23-0.186-2.044-0.86-2.228-1.8h-2.136zM15.354 14.69c-1.18-0.274-1.82-0.832-1.82-1.672 0-0.94 0.69-1.644 1.83-1.85v3.52l-0.010 0.002zM16.738 17.076c1.434 0.332 2.096 0.87 2.096 1.82 0 1.084-0.824 1.828-2.27 1.964v-3.824l0.174 0.040z"></path>
<path fill="#92929d" style="fill: var(--color3, #92929d)" d="M16 30c-3.713 0-7.274-1.475-9.899-4.1s-4.101-6.187-4.101-9.9c0-3.713 1.475-7.274 4.101-9.899s6.186-4.101 9.899-4.101c3.713 0 7.274 1.475 9.9 4.101s4.1 6.186 4.1 9.899c0 3.713-1.475 7.274-4.1 9.9s-6.187 4.1-9.9 4.1zM16 32c4.244 0 8.313-1.686 11.314-4.686s4.686-7.070 4.686-11.314c0-4.243-1.686-8.313-4.686-11.314s-7.070-4.686-11.314-4.686c-4.243 0-8.313 1.686-11.314 4.686s-4.686 7.070-4.686 11.314c0 4.244 1.686 8.313 4.686 11.314s7.070 4.686 11.314 4.686z"></path>
<path fill="#92929d" style="fill: var(--color3, #92929d)" d="M16 27c-2.917 0-5.715-1.159-7.778-3.222s-3.222-4.861-3.222-7.778c0-2.917 1.159-5.715 3.222-7.778s4.861-3.222 7.778-3.222c2.917 0 5.715 1.159 7.778 3.222s3.222 4.861 3.222 7.778c0 2.917-1.159 5.715-3.222 7.778s-4.861 3.222-7.778 3.222zM16 28c1.576 0 3.136-0.31 4.592-0.913s2.779-1.487 3.893-2.601 1.998-2.437 2.601-3.893c0.603-1.456 0.913-3.016 0.913-4.592s-0.31-3.136-0.913-4.592c-0.603-1.456-1.487-2.779-2.601-3.893s-2.437-1.998-3.893-2.601c-1.456-0.603-3.016-0.913-4.592-0.913-3.183 0-6.235 1.264-8.485 3.515s-3.515 5.303-3.515 8.485c0 3.183 1.264 6.235 3.515 8.485s5.303 3.515 8.485 3.515z"></path>
</symbol>
<symbol id="menu-columns" viewBox="0 0 32 32">
<path d="M12 2v6h-10v-6h10zM2 0c-0.53 0-1.039 0.211-1.414 0.586s-0.586 0.884-0.586 1.414v6c0 0.53 0.211 1.039 0.586 1.414s0.884 0.586 1.414 0.586h10c0.53 0 1.039-0.211 1.414-0.586s0.586-0.884 0.586-1.414v-6c0-0.53-0.211-1.039-0.586-1.414s-0.884-0.586-1.414-0.586h-10zM30 24v6h-10v-6h10zM20 22c-0.53 0-1.039 0.211-1.414 0.586s-0.586 0.884-0.586 1.414v6c0 0.53 0.211 1.039 0.586 1.414s0.884 0.586 1.414 0.586h10c0.53 0 1.039-0.211 1.414-0.586s0.586-0.884 0.586-1.414v-6c0-0.53-0.211-1.039-0.586-1.414s-0.884-0.586-1.414-0.586h-10zM12 16v14h-10v-14h10zM2 14c-0.53 0-1.039 0.211-1.414 0.586s-0.586 0.884-0.586 1.414v14c0 0.53 0.211 1.039 0.586 1.414s0.884 0.586 1.414 0.586h10c0.53 0 1.039-0.211 1.414-0.586s0.586-0.884 0.586-1.414v-14c0-0.53-0.211-1.039-0.586-1.414s-0.884-0.586-1.414-0.586h-10zM30 2v14h-10v-14h10zM20 0c-0.53 0-1.039 0.211-1.414 0.586s-0.586 0.884-0.586 1.414v14c0 0.53 0.211 1.039 0.586 1.414s0.884 0.586 1.414 0.586h10c0.53 0 1.039-0.211 1.414-0.586s0.586-0.884 0.586-1.414v-14c0-0.53-0.211-1.039-0.586-1.414s-0.884-0.586-1.414-0.586h-10z"></path>
</symbol>
<symbol id="icon-bi_envelope" viewBox="0 0 32 32">
<path fill="#92929d" style="fill: var(--color3, #92929d)" d="M0 8c0-1.061 0.421-2.078 1.172-2.828s1.768-1.172 2.828-1.172h24c1.061 0 2.078 0.421 2.828 1.172s1.172 1.768 1.172 2.828v16c0 1.061-0.421 2.078-1.172 2.828s-1.768 1.172-2.828 1.172h-24c-1.061 0-2.078-0.421-2.828-1.172s-1.172-1.768-1.172-2.828v-16zM4 6c-0.53 0-1.039 0.211-1.414 0.586s-0.586 0.884-0.586 1.414v0.434l14 8.4 14-8.4v-0.434c0-0.53-0.211-1.039-0.586-1.414s-0.884-0.586-1.414-0.586h-24zM30 10.766l-9.416 5.65 9.416 5.794v-11.444zM29.932 24.518l-11.28-6.942-2.652 1.59-2.652-1.59-11.28 6.94c0.114 0.426 0.365 0.802 0.714 1.070s0.777 0.414 1.218 0.414h24c0.44 0 0.868-0.145 1.218-0.413s0.6-0.644 0.714-1.069zM2 22.21l9.416-5.794-9.416-5.65v11.444z"></path>
</symbol>
<symbol id="icon-down" viewBox="0 0 53 32">
<path fill="#fff" style="fill: var(--color1, #fff)" d="M1.25 2.584c0.186-0.186 0.407-0.334 0.649-0.435s0.503-0.153 0.767-0.153c0.263 0 0.524 0.052 0.767 0.153s0.464 0.249 0.649 0.435l22.584 22.588 22.584-22.588c0.186-0.186 0.407-0.333 0.65-0.434s0.503-0.152 0.766-0.152c0.263 0 0.523 0.052 0.766 0.152s0.464 0.248 0.65 0.434c0.186 0.186 0.333 0.407 0.434 0.65s0.152 0.503 0.152 0.766c0 0.263-0.052 0.523-0.152 0.766s-0.248 0.464-0.434 0.65l-24 24c-0.186 0.186-0.407 0.334-0.649 0.435s-0.503 0.153-0.767 0.153c-0.263 0-0.524-0.052-0.767-0.153s-0.464-0.249-0.649-0.435l-24-24c-0.186-0.186-0.334-0.407-0.435-0.649s-0.153-0.503-0.153-0.767c0-0.263 0.052-0.524 0.153-0.767s0.249-0.464 0.435-0.649z"></path>
</symbol>
<symbol id="icon-up" viewBox="0 0 32 32">
<path fill="#fff" style="fill: var(--color1, #fff)" d="M15.292 9.292c0.093-0.093 0.203-0.167 0.325-0.217s0.252-0.076 0.383-0.076c0.132 0 0.262 0.026 0.383 0.076s0.232 0.124 0.325 0.217l12 12c0.188 0.188 0.293 0.442 0.293 0.708s-0.106 0.52-0.293 0.708c-0.188 0.188-0.442 0.293-0.708 0.293s-0.52-0.105-0.708-0.293l-11.292-11.294-11.292 11.294c-0.188 0.188-0.442 0.293-0.708 0.293s-0.52-0.105-0.708-0.293c-0.188-0.188-0.293-0.442-0.293-0.708s0.106-0.52 0.293-0.708l12-12z"></path>
</symbol>
<symbol id="icon-bi_exclamation-triangle" viewBox="0 0 32 32">
<path fill="#fff" style="fill: var(--color2, #fff)" d="M15.876 4.032c0.039-0.021 0.083-0.033 0.128-0.032s0.087 0.011 0.126 0.032c0.046 0.027 0.083 0.067 0.108 0.114l13.714 23.334c0.072 0.12 0.070 0.248 0.004 0.366-0.025 0.048-0.063 0.090-0.108 0.12-0.040 0.024-0.086 0.036-0.132 0.034h-27.424c-0.046 0.002-0.092-0.010-0.132-0.034-0.046-0.030-0.083-0.072-0.108-0.12-0.033-0.056-0.050-0.119-0.049-0.184s0.019-0.128 0.053-0.182l13.712-23.334c0.025-0.047 0.062-0.087 0.108-0.114zM17.964 3.132c-0.198-0.345-0.483-0.631-0.828-0.831s-0.735-0.304-1.132-0.304c-0.398 0-0.788 0.105-1.132 0.304s-0.63 0.486-0.828 0.831l-13.714 23.334c-0.914 1.556 0.182 3.534 1.96 3.534h27.426c1.778 0 2.876-1.98 1.96-3.534l-13.712-23.334z"></path>
<path fill="#fff" style="fill: var(--color2, #fff)" d="M14.004 24c0-0.263 0.052-0.523 0.152-0.765s0.248-0.463 0.434-0.649c0.186-0.186 0.406-0.333 0.649-0.433s0.503-0.152 0.765-0.152c0.263 0 0.523 0.052 0.765 0.152s0.463 0.248 0.649 0.433c0.186 0.186 0.333 0.406 0.434 0.649s0.152 0.503 0.152 0.765c0 0.53-0.211 1.039-0.586 1.414s-0.884 0.586-1.414 0.586c-0.53 0-1.039-0.211-1.414-0.586s-0.586-0.884-0.586-1.414zM14.2 11.99c-0.027-0.252 0-0.507 0.078-0.749s0.207-0.463 0.376-0.652c0.17-0.189 0.377-0.339 0.609-0.443s0.483-0.157 0.736-0.157c0.254 0 0.505 0.053 0.736 0.157s0.439 0.254 0.609 0.443 0.298 0.411 0.376 0.652c0.078 0.241 0.105 0.496 0.078 0.749l-0.7 7.014c-0.024 0.276-0.15 0.532-0.353 0.719s-0.47 0.291-0.747 0.291c-0.277 0-0.543-0.104-0.747-0.291s-0.33-0.444-0.353-0.719l-0.7-7.014z"></path>
</symbol>
<symbol id="icon-bi_gear" viewBox="0 0 32 32">
<path fill="#92929d" style="fill: var(--color3, #92929d)" d="M16 9.508c-0.853 0-1.697 0.168-2.484 0.494s-1.503 0.804-2.106 1.407c-0.603 0.603-1.081 1.319-1.407 2.106s-0.494 1.632-0.494 2.484c0 0.853 0.168 1.697 0.494 2.484s0.804 1.503 1.407 2.106c0.603 0.603 1.319 1.081 2.106 1.407s1.632 0.494 2.484 0.494c1.722 0 3.373-0.684 4.591-1.901s1.901-2.869 1.901-4.591c0-1.722-0.684-3.373-1.901-4.591s-2.869-1.901-4.591-1.901zM11.508 16c0-1.191 0.473-2.334 1.316-3.176s1.985-1.316 3.176-1.316c1.191 0 2.334 0.473 3.176 1.316s1.316 1.985 1.316 3.176c0 1.191-0.473 2.334-1.316 3.176s-1.985 1.316-3.176 1.316c-1.191 0-2.334-0.473-3.176-1.316s-1.316-1.985-1.316-3.176z"></path>
<path fill="#92929d" style="fill: var(--color3, #92929d)" d="M19.592 2.686c-1.054-3.58-6.13-3.58-7.184 0l-0.188 0.638c-0.074 0.25-0.202 0.48-0.376 0.674s-0.389 0.346-0.63 0.446c-0.241 0.1-0.501 0.144-0.761 0.131s-0.514-0.086-0.743-0.21l-0.584-0.32c-3.28-1.784-6.866 1.804-5.080 5.082l0.318 0.584c0.125 0.229 0.196 0.483 0.21 0.743s-0.031 0.52-0.131 0.761c-0.1 0.241-0.252 0.456-0.446 0.63s-0.424 0.303-0.674 0.376l-0.638 0.188c-3.58 1.054-3.58 6.13 0 7.184l0.638 0.188c0.25 0.074 0.48 0.202 0.674 0.376s0.346 0.389 0.446 0.63c0.1 0.241 0.144 0.501 0.131 0.761s-0.086 0.514-0.21 0.743l-0.32 0.584c-1.784 3.28 1.802 6.868 5.082 5.080l0.584-0.318c0.229-0.125 0.483-0.196 0.743-0.21s0.52 0.031 0.761 0.13c0.241 0.1 0.456 0.252 0.63 0.446s0.303 0.424 0.376 0.674l0.188 0.638c1.054 3.58 6.13 3.58 7.184 0l0.188-0.638c0.074-0.25 0.202-0.48 0.376-0.674s0.389-0.346 0.63-0.446c0.241-0.1 0.501-0.144 0.761-0.13s0.514 0.086 0.743 0.21l0.584 0.32c3.28 1.786 6.868-1.804 5.080-5.082l-0.318-0.584c-0.125-0.229-0.196-0.483-0.21-0.743s0.031-0.52 0.13-0.761c0.1-0.241 0.252-0.456 0.446-0.63s0.424-0.303 0.674-0.376l0.638-0.188c3.58-1.054 3.58-6.13 0-7.184l-0.638-0.188c-0.25-0.074-0.48-0.202-0.674-0.376s-0.346-0.389-0.446-0.63c-0.1-0.241-0.144-0.501-0.13-0.761s0.086-0.514 0.21-0.743l0.32-0.584c1.786-3.28-1.804-6.866-5.082-5.080l-0.584 0.318c-0.229 0.125-0.483 0.196-0.743 0.21s-0.52-0.031-0.761-0.131c-0.241-0.1-0.456-0.252-0.63-0.446s-0.303-0.424-0.376-0.674l-0.188-0.638zM14.326 3.252c0.492-1.67 2.856-1.67 3.348 0l0.188 0.638c0.158 0.536 0.434 1.030 0.808 1.446s0.836 0.742 1.352 0.956c0.516 0.214 1.074 0.309 1.632 0.28s1.103-0.184 1.593-0.452l0.582-0.32c1.528-0.83 3.2 0.84 2.368 2.37l-0.318 0.584c-0.267 0.491-0.421 1.035-0.451 1.593s0.066 1.116 0.28 1.632c0.214 0.516 0.541 0.978 0.956 1.352s0.91 0.649 1.446 0.807l0.636 0.188c1.67 0.492 1.67 2.856 0 3.348l-0.638 0.188c-0.536 0.158-1.030 0.434-1.446 0.808s-0.742 0.836-0.956 1.352c-0.214 0.516-0.309 1.074-0.28 1.632s0.184 1.103 0.452 1.593l0.32 0.582c0.83 1.528-0.84 3.2-2.37 2.368l-0.582-0.318c-0.491-0.268-1.036-0.422-1.594-0.451s-1.116 0.066-1.633 0.28c-0.516 0.214-0.978 0.541-1.352 0.957s-0.65 0.91-0.807 1.446l-0.188 0.636c-0.492 1.67-2.856 1.67-3.348 0l-0.188-0.638c-0.158-0.536-0.434-1.030-0.808-1.445s-0.835-0.742-1.352-0.956-1.074-0.309-1.632-0.28c-0.558 0.029-1.102 0.184-1.593 0.451l-0.584 0.32c-1.528 0.83-3.2-0.84-2.368-2.37l0.318-0.582c0.268-0.491 0.423-1.036 0.452-1.594s-0.066-1.116-0.279-1.633c-0.214-0.517-0.541-0.979-0.957-1.353s-0.91-0.65-1.447-0.808l-0.638-0.188c-1.67-0.492-1.67-2.856 0-3.348l0.638-0.188c0.536-0.158 1.029-0.434 1.444-0.808s0.742-0.835 0.955-1.351c0.214-0.516 0.309-1.073 0.28-1.631s-0.183-1.102-0.45-1.592l-0.32-0.584c-0.83-1.528 0.84-3.2 2.37-2.368l0.584 0.318c0.491 0.267 1.035 0.421 1.593 0.451s1.115-0.066 1.632-0.28c0.516-0.214 0.978-0.54 1.352-0.956s0.65-0.909 0.808-1.445l0.188-0.638z"></path>
</symbol>
<symbol id="icon-bi_gem" viewBox="0 0 32 32">
<path fill="#fff" style="fill: var(--color2, #fff)" d="M6.2 1.4c0.093-0.124 0.214-0.225 0.353-0.294s0.292-0.106 0.447-0.106h18c0.155 0 0.308 0.036 0.447 0.106s0.26 0.17 0.353 0.294l5.952 7.948c0.298 0.37 0.312 0.9 0.020 1.288l-14.972 19.964c-0.093 0.124-0.214 0.225-0.353 0.294s-0.292 0.106-0.447 0.106c-0.155 0-0.308-0.036-0.447-0.106s-0.26-0.17-0.353-0.294l-15-20c-0.13-0.173-0.2-0.384-0.2-0.6s0.070-0.427 0.2-0.6l6-8zM28.972 8.97l-3.612-4.82-1.552 4.826 5.164-0.006zM21.706 8.978l1.922-5.978h-15.256l1.926 5.99 11.408-0.012zM10.94 10.99l5.060 15.742 5.064-15.752-10.124 0.010zM8.198 8.992l-1.56-4.844-3.636 4.85 5.196-0.006zM2.998 11l10.226 13.634-4.384-13.64-5.842 0.006zM18.776 24.634l10.246-13.66-5.856 0.004-4.39 13.656z"></path>
</symbol>
<symbol id="icon-bi_heart" viewBox="0 0 32 32">
<path fill="#fff" style="fill: var(--color2, #fff)" d="M16 5.496l-1.434-1.474c-3.366-3.46-9.538-2.266-11.766 2.084-1.046 2.046-1.282 5 0.628 8.77 1.84 3.63 5.668 7.978 12.572 12.714 6.904-4.736 10.73-9.084 12.572-12.714 1.91-3.772 1.676-6.724 0.628-8.77-2.228-4.35-8.4-5.546-11.766-2.086l-1.434 1.476zM16 30c-30.666-20.264-9.442-36.080-0.352-27.714 0.12 0.11 0.238 0.224 0.352 0.342 0.113-0.118 0.23-0.231 0.352-0.34 9.088-8.372 30.314 7.446-0.352 27.712z"></path>
</symbol>
<symbol id="icon-bi_info-circle" viewBox="0 0 32 32">
<path fill="#fff" style="fill: var(--color2, #fff)" d="M16 30c-3.713 0-7.274-1.475-9.899-4.1s-4.101-6.187-4.101-9.9c0-3.713 1.475-7.274 4.101-9.899s6.186-4.101 9.899-4.101c3.713 0 7.274 1.475 9.9 4.101s4.1 6.186 4.1 9.899c0 3.713-1.475 7.274-4.1 9.9s-6.187 4.1-9.9 4.1zM16 32c4.244 0 8.313-1.686 11.314-4.686s4.686-7.070 4.686-11.314c0-4.243-1.686-8.313-4.686-11.314s-7.070-4.686-11.314-4.686c-4.243 0-8.313 1.686-11.314 4.686s-4.686 7.070-4.686 11.314c0 4.244 1.686 8.313 4.686 11.314s7.070 4.686 11.314 4.686z"></path>
<path fill="#fff" style="fill: var(--color2, #fff)" d="M17.86 13.176l-4.58 0.574-0.164 0.76 0.9 0.166c0.588 0.14 0.704 0.352 0.576 0.938l-1.476 6.936c-0.388 1.794 0.21 2.638 1.616 2.638 1.090 0 2.356-0.504 2.93-1.196l0.176-0.832c-0.4 0.352-0.984 0.492-1.372 0.492-0.55 0-0.75-0.386-0.608-1.066l2.002-9.41zM18 9c0 0.53-0.211 1.039-0.586 1.414s-0.884 0.586-1.414 0.586c-0.53 0-1.039-0.211-1.414-0.586s-0.586-0.884-0.586-1.414c0-0.53 0.211-1.039 0.586-1.414s0.884-0.586 1.414-0.586c0.53 0 1.039 0.211 1.414 0.586s0.586 0.884 0.586 1.414z"></path>
</symbol>
<symbol id="icon-bi_journal-text" viewBox="0 0 32 32">
<path fill="#92929d" style="fill: var(--color3, #92929d)" d="M10 21c0-0.265 0.105-0.52 0.293-0.707s0.442-0.293 0.707-0.293h4c0.265 0 0.52 0.105 0.707 0.293s0.293 0.442 0.293 0.707-0.105 0.52-0.293 0.707c-0.188 0.188-0.442 0.293-0.707 0.293h-4c-0.265 0-0.52-0.105-0.707-0.293s-0.293-0.442-0.293-0.707zM10 17c0-0.265 0.105-0.52 0.293-0.707s0.442-0.293 0.707-0.293h10c0.265 0 0.52 0.105 0.707 0.293s0.293 0.442 0.293 0.707-0.105 0.52-0.293 0.707c-0.188 0.188-0.442 0.293-0.707 0.293h-10c-0.265 0-0.52-0.105-0.707-0.293s-0.293-0.442-0.293-0.707zM10 13c0-0.265 0.105-0.52 0.293-0.707s0.442-0.293 0.707-0.293h10c0.265 0 0.52 0.105 0.707 0.293s0.293 0.442 0.293 0.707-0.105 0.52-0.293 0.707c-0.188 0.188-0.442 0.293-0.707 0.293h-10c-0.265 0-0.52-0.105-0.707-0.293s-0.293-0.442-0.293-0.707zM10 9c0-0.265 0.105-0.52 0.293-0.707s0.442-0.293 0.707-0.293h10c0.265 0 0.52 0.105 0.707 0.293s0.293 0.442 0.293 0.707-0.105 0.52-0.293 0.707c-0.188 0.188-0.442 0.293-0.707 0.293h-10c-0.265 0-0.52-0.105-0.707-0.293s-0.293-0.442-0.293-0.707z"></path>
<path fill="#92929d" style="fill: var(--color3, #92929d)" d="M6 0h20c1.061 0 2.078 0.421 2.828 1.172s1.172 1.768 1.172 2.828v24c0 1.061-0.421 2.078-1.172 2.828s-1.768 1.172-2.828 1.172h-20c-1.061 0-2.078-0.421-2.828-1.172s-1.172-1.768-1.172-2.828v-2h2v2c0 0.53 0.211 1.039 0.586 1.414s0.884 0.586 1.414 0.586h20c0.53 0 1.039-0.211 1.414-0.586s0.586-0.884 0.586-1.414v-24c0-0.53-0.211-1.039-0.586-1.414s-0.884-0.586-1.414-0.586h-20c-0.53 0-1.039 0.211-1.414 0.586s-0.586 0.884-0.586 1.414v2h-2v-2c0-1.061 0.421-2.078 1.172-2.828s1.768-1.172 2.828-1.172z"></path>
<path fill="#92929d" style="fill: var(--color3, #92929d)" d="M2 10v-1c0-0.265 0.105-0.52 0.293-0.707s0.442-0.293 0.707-0.293c0.265 0 0.52 0.105 0.707 0.293s0.293 0.442 0.293 0.707v1h1c0.265 0 0.52 0.105 0.707 0.293s0.293 0.442 0.293 0.707c0 0.265-0.105 0.52-0.293 0.707s-0.442 0.293-0.707 0.293h-4c-0.265 0-0.52-0.105-0.707-0.293s-0.293-0.442-0.293-0.707c0-0.265 0.105-0.52 0.293-0.707s0.442-0.293 0.707-0.293h1zM2 16v-1c0-0.265 0.105-0.52 0.293-0.707s0.442-0.293 0.707-0.293c0.265 0 0.52 0.105 0.707 0.293s0.293 0.442 0.293 0.707v1h1c0.265 0 0.52 0.105 0.707 0.293s0.293 0.442 0.293 0.707-0.105 0.52-0.293 0.707c-0.188 0.188-0.442 0.293-0.707 0.293h-4c-0.265 0-0.52-0.105-0.707-0.293s-0.293-0.442-0.293-0.707 0.105-0.52 0.293-0.707c0.188-0.188 0.442-0.293 0.707-0.293h1zM2 22v-1c0-0.265 0.105-0.52 0.293-0.707s0.442-0.293 0.707-0.293 0.52 0.105 0.707 0.293c0.188 0.188 0.293 0.442 0.293 0.707v1h1c0.265 0 0.52 0.105 0.707 0.293s0.293 0.442 0.293 0.707-0.105 0.52-0.293 0.707c-0.188 0.188-0.442 0.293-0.707 0.293h-4c-0.265 0-0.52-0.105-0.707-0.293s-0.293-0.442-0.293-0.707 0.105-0.52 0.293-0.707c0.188-0.188 0.442-0.293 0.707-0.293h1z"></path>
</symbol>
<symbol id="icon-bi_person-plus" viewBox="0 0 32 32">
<path d="M12 16c1.591 0 3.117-0.632 4.243-1.757s1.757-2.651 1.757-4.243-0.632-3.117-1.757-4.243c-1.125-1.125-2.651-1.757-4.243-1.757s-3.117 0.632-4.243 1.757c-1.125 1.125-1.757 2.651-1.757 4.243s0.632 3.117 1.757 4.243c1.125 1.125 2.651 1.757 4.243 1.757zM16 10c0 1.061-0.421 2.078-1.172 2.828s-1.768 1.172-2.828 1.172c-1.061 0-2.078-0.421-2.828-1.172s-1.172-1.768-1.172-2.828c0-1.061 0.421-2.078 1.172-2.828s1.768-1.172 2.828-1.172c1.061 0 2.078 0.421 2.828 1.172s1.172 1.768 1.172 2.828zM24 26c0 2-2 2-2 2h-20c0 0-2 0-2-2s2-8 12-8c10 0 12 6 12 8zM22 25.992c-0.002-0.492-0.308-1.972-1.664-3.328-1.304-1.304-3.758-2.664-8.336-2.664-4.58 0-7.032 1.36-8.336 2.664-1.356 1.356-1.66 2.836-1.664 3.328h20z"></path>
<path d="M27 10c0.265 0 0.52 0.105 0.707 0.293s0.293 0.442 0.293 0.707v3h3c0.265 0 0.52 0.105 0.707 0.293s0.293 0.442 0.293 0.707-0.105 0.52-0.293 0.707c-0.188 0.188-0.442 0.293-0.707 0.293h-3v3c0 0.265-0.105 0.52-0.293 0.707s-0.442 0.293-0.707 0.293-0.52-0.105-0.707-0.293c-0.188-0.188-0.293-0.442-0.293-0.707v-3h-3c-0.265 0-0.52-0.105-0.707-0.293s-0.293-0.442-0.293-0.707 0.105-0.52 0.293-0.707c0.188-0.188 0.442-0.293 0.707-0.293h3v-3c0-0.265 0.105-0.52 0.293-0.707s0.442-0.293 0.707-0.293z"></path>
</symbol>
<symbol id="icon-bi_plus" viewBox="0 0 32 32">
<path fill="#fff" style="fill: var(--color2, #fff)" d="M16 8c0.265 0 0.52 0.105 0.707 0.293s0.293 0.442 0.293 0.707v6h6c0.265 0 0.52 0.105 0.707 0.293s0.293 0.442 0.293 0.707-0.105 0.52-0.293 0.707c-0.188 0.188-0.442 0.293-0.707 0.293h-6v6c0 0.265-0.105 0.52-0.293 0.707s-0.442 0.293-0.707 0.293-0.52-0.105-0.707-0.293c-0.188-0.188-0.293-0.442-0.293-0.707v-6h-6c-0.265 0-0.52-0.105-0.707-0.293s-0.293-0.442-0.293-0.707c0-0.265 0.105-0.52 0.293-0.707s0.442-0.293 0.707-0.293h6v-6c0-0.265 0.105-0.52 0.293-0.707s0.442-0.293 0.707-0.293z"></path>
</symbol>
<symbol id="icon-bi_dash" viewBox="0 0 32 32">
<path fill="#92929d" style="fill: var(--color1, #92929d)" d="M8 16c0-0.265 0.105-0.52 0.293-0.707s0.442-0.293 0.707-0.293h14c0.265 0 0.52 0.105 0.707 0.293s0.293 0.442 0.293 0.707-0.105 0.52-0.293 0.707c-0.188 0.188-0.442 0.293-0.707 0.293h-14c-0.265 0-0.52-0.105-0.707-0.293s-0.293-0.442-0.293-0.707z"></path>
</symbol>
<symbol id="icon-done" viewBox="0 0 44 32">
<path fill="#fff" style="fill: var(--color1, #fff)" d="M41.651 1.622c0.169 0.169 0.303 0.37 0.395 0.59s0.139 0.458 0.139 0.697-0.047 0.476-0.139 0.697c-0.092 0.221-0.226 0.422-0.395 0.59l-25.455 25.454c-0.169 0.169-0.37 0.304-0.59 0.395s-0.458 0.139-0.697 0.139c-0.239 0-0.476-0.047-0.697-0.139s-0.422-0.226-0.59-0.395l-12.727-12.727c-0.341-0.341-0.533-0.804-0.533-1.287s0.192-0.946 0.533-1.287c0.341-0.341 0.804-0.533 1.287-0.533s0.946 0.192 1.287 0.533l11.44 11.444 24.167-24.171c0.169-0.169 0.369-0.304 0.59-0.395s0.458-0.139 0.697-0.139c0.239 0 0.476 0.047 0.697 0.139s0.422 0.226 0.591 0.395z"></path>
</symbol>
<symbol id="icon-bi_x-lg" viewBox="0 0 32 32">
<path fill="#fc5a5a" style="fill: var(--color4, #fc5a5a)" d="M4.292 5.708c-0.093-0.093-0.167-0.203-0.217-0.325s-0.076-0.252-0.076-0.383c0-0.131 0.026-0.262 0.076-0.383s0.124-0.232 0.217-0.325c0.093-0.093 0.203-0.167 0.325-0.217s0.252-0.076 0.383-0.076c0.131 0 0.262 0.026 0.383 0.076s0.232 0.124 0.325 0.217l10.292 10.294 10.292-10.294c0.093-0.093 0.203-0.167 0.325-0.217s0.252-0.076 0.383-0.076 0.262 0.026 0.383 0.076c0.121 0.050 0.232 0.124 0.325 0.217s0.167 0.203 0.217 0.325c0.050 0.121 0.076 0.252 0.076 0.383s-0.026 0.262-0.076 0.383c-0.050 0.121-0.124 0.232-0.217 0.325l-10.294 10.292 10.294 10.292c0.093 0.093 0.167 0.203 0.217 0.325s0.076 0.252 0.076 0.383-0.026 0.262-0.076 0.383c-0.050 0.121-0.124 0.232-0.217 0.325s-0.203 0.167-0.325 0.217c-0.121 0.050-0.252 0.076-0.383 0.076s-0.262-0.026-0.383-0.076c-0.121-0.050-0.232-0.124-0.325-0.217l-10.292-10.294-10.292 10.294c-0.093 0.093-0.203 0.167-0.325 0.217s-0.252 0.076-0.383 0.076-0.262-0.026-0.383-0.076c-0.121-0.050-0.232-0.124-0.325-0.217s-0.167-0.203-0.217-0.325c-0.050-0.121-0.076-0.252-0.076-0.383s0.026-0.262 0.076-0.383c0.050-0.121 0.124-0.232 0.217-0.325l10.294-10.292-10.294-10.292z"></path>
</symbol>
<symbol id="icon-bi_x-octagon" viewBox="0 0 32 32">
<path fill="#fff" style="fill: var(--color2, #fff)" d="M9.080 0.292c0.187-0.187 0.441-0.292 0.706-0.292h12.428c0.265 0 0.519 0.105 0.706 0.292l8.788 8.788c0.187 0.187 0.292 0.441 0.292 0.706v12.428c0 0.265-0.105 0.519-0.292 0.706l-8.788 8.788c-0.187 0.187-0.441 0.292-0.706 0.292h-12.428c-0.265 0-0.519-0.105-0.706-0.292l-8.788-8.788c-0.187-0.187-0.292-0.441-0.292-0.706v-12.428c0-0.265 0.105-0.519 0.292-0.706l8.788-8.788zM10.2 2l-8.2 8.2v11.6l8.2 8.2h11.6l8.2-8.2v-11.6l-8.2-8.2h-11.6z"></path>
<path fill="#fff" style="fill: var(--color2, #fff)" d="M9.292 9.292c0.093-0.093 0.203-0.167 0.325-0.217s0.252-0.076 0.383-0.076c0.132 0 0.262 0.026 0.383 0.076s0.232 0.124 0.325 0.217l5.292 5.294 5.292-5.294c0.093-0.093 0.203-0.167 0.325-0.217s0.252-0.076 0.383-0.076c0.132 0 0.262 0.026 0.383 0.076s0.232 0.124 0.325 0.217c0.093 0.093 0.167 0.203 0.217 0.325s0.076 0.252 0.076 0.383-0.026 0.262-0.076 0.383c-0.050 0.121-0.124 0.232-0.217 0.325l-5.294 5.292 5.294 5.292c0.093 0.093 0.167 0.203 0.217 0.325s0.076 0.252 0.076 0.383-0.026 0.262-0.076 0.383c-0.050 0.121-0.124 0.232-0.217 0.325s-0.203 0.167-0.325 0.217c-0.121 0.050-0.252 0.076-0.383 0.076s-0.262-0.026-0.383-0.076c-0.122-0.050-0.232-0.124-0.325-0.217l-5.292-5.294-5.292 5.294c-0.093 0.093-0.203 0.167-0.325 0.217s-0.252 0.076-0.383 0.076-0.262-0.026-0.383-0.076c-0.121-0.050-0.232-0.124-0.325-0.217s-0.167-0.203-0.217-0.325c-0.050-0.122-0.076-0.252-0.076-0.383s0.026-0.262 0.076-0.383c0.050-0.121 0.124-0.232 0.217-0.325l5.294-5.292-5.294-5.292c-0.093-0.093-0.167-0.203-0.217-0.325s-0.076-0.252-0.076-0.383c0-0.132 0.026-0.262 0.076-0.383s0.124-0.232 0.217-0.325z"></path>
</symbol>
<symbol id="icon-x-close" viewBox="0 0 32 32">
 <path d="M2.68256 3.56756C2.62445 3.50945 2.57835 3.44046 2.5469 3.36454C2.51545 3.28861 2.49927 3.20724 2.49927 3.12506C2.49927 3.04288 2.51545 2.9615 2.5469 2.88558C2.57835 2.80965 2.62445 2.74067 2.68256 2.68256C2.74067 2.62445 2.80965 2.57835 2.88558 2.5469C2.9615 2.51545 3.04288 2.49927 3.12506 2.49927C3.20724 2.49927 3.28861 2.51545 3.36454 2.5469C3.44046 2.57835 3.50945 2.62445 3.56756 2.68256L10.0001 9.11631L16.4326 2.68256C16.4907 2.62445 16.5597 2.57835 16.6356 2.5469C16.7115 2.51545 16.7929 2.49927 16.8751 2.49927C16.9572 2.49927 17.0386 2.51545 17.1145 2.5469C17.1905 2.57835 17.2594 2.62445 17.3176 2.68256C17.3757 2.74067 17.4218 2.80965 17.4532 2.88558C17.4847 2.9615 17.5008 3.04288 17.5008 3.12506C17.5008 3.20724 17.4847 3.28861 17.4532 3.36454C17.4218 3.44046 17.3757 3.50945 17.3176 3.56756L10.8838 10.0001L17.3176 16.4326C17.3757 16.4907 17.4218 16.5597 17.4532 16.6356C17.4847 16.7115 17.5008 16.7929 17.5008 16.8751C17.5008 16.9572 17.4847 17.0386 17.4532 17.1145C17.4218 17.1905 17.3757 17.2594 17.3176 17.3176C17.2594 17.3757 17.1905 17.4218 17.1145 17.4532C17.0386 17.4847 16.9572 17.5008 16.8751 17.5008C16.7929 17.5008 16.7115 17.4847 16.6356 17.4532C16.5597 17.4218 16.4907 17.3757 16.4326 17.3176L10.0001 10.8838L3.56756 17.3176C3.50945 17.3757 3.44046 17.4218 3.36454 17.4532C3.28861 17.4847 3.20724 17.5008 3.12506 17.5008C3.04288 17.5008 2.9615 17.4847 2.88558 17.4532C2.80965 17.4218 2.74067 17.3757 2.68256 17.3176C2.62445 17.2594 2.57835 17.1905 2.5469 17.1145C2.51545 17.0386 2.49927 16.9572 2.49927 16.8751C2.49927 16.7929 2.51545 16.7115 2.5469 16.6356C2.57835 16.5597 2.62445 16.4907 2.68256 16.4326L9.11631 10.0001L2.68256 3.56756Z" />
</symbol>
<symbol id="icon-logo" viewBox="0 0 33 32">
<path fill="#1c1c24" style="fill: var(--color1, #1c1c24)" d="M2.666 9.767c0 0-0.494-9.195 1.504-9.655s5.445 2.84 5.445 2.84l-6.948 6.816z"></path>
<path fill="#1c1c24" style="fill: var(--color1, #1c1c24)" d="M21.54 3.175c0 0 3.689-3.673 6.303-3.061 2.613 0.612 0.616 7.873 0.616 7.873l-6.919-4.811z"></path>
<path fill="#f07f2e" style="fill: var(--color2, #f07f2e); stroke: var(--color1, #1c1c24)" stroke="#1c1c24" stroke-linejoin="miter" stroke-linecap="butt" stroke-miterlimit="10" stroke-width="0.5565" d="M28.756 26.583c-2.769 2.188-4.621 2.903-7.768 3.755-2.101 0.568-7.391 0.54-12.321-1.444-3.454-1.511-4.807-3.154-5.459-4.049-0.567-0.779-1.722-2.507-1.788-4.397-0.096-2.752-0.015-5.436 1.248-10.677 1.263-5.242 6.949-6.816 6.949-6.816 6.212-1.467 11.37-0.314 13.161 0s6.875 3.534 7.313 9.987c0.067 0.965 1.148 4.397 1.252 7.28 0.032 0.884 0.057 2.061-0.383 3.269-0.508 1.393-1.641 2.622-2.202 3.092z"></path>
<path fill="#1c1c24" style="fill: var(--color1, #1c1c24)" d="M11.634 13.562c0.044-0.083 0.094-0.162 0.148-0.24 0.026-0.037 0.052-0.075 0.078-0.112 0.015-0.019 0.031-0.040 0.046-0.060 0.036-0.050-0.080 0.096-0.007 0.008 0.075-0.091 0.151-0.178 0.236-0.261 0.044-0.044 0.089-0.086 0.137-0.126 0.016-0.015 0.099-0.081 0.034-0.031s0.029-0.019 0.050-0.034c0.052-0.036 0.107-0.070 0.164-0.099 0.028-0.015 0.057-0.028 0.086-0.042 0.057-0.029-0.102 0.032 0.010-0.002 0.062-0.019 0.124-0.034 0.185-0.049 0.083-0.021-0.106 0.003-0.020 0.003 0.037 0 0.075-0.005 0.114-0.003 0.034 0 0.068 0.006 0.101 0.006 0.062 0-0.099-0.027-0.041-0.005 0.013 0.005 0.031 0.005 0.046 0.010 0.036 0.010 0.072 0.018 0.106 0.029 0.015 0.005 0.031 0.011 0.046 0.016 0.096 0.028-0.055-0.036-0.008-0.003 0.080 0.053 0.172 0.094 0.254 0.147 0.016 0.011 0.033 0.023 0.049 0.036-0.078-0.060 0 0.002 0.015 0.016 0.044 0.040 0.089 0.079 0.132 0.121 0.218 0.217 0.351 0.406 0.517 0.673 0.138 0.222 0.436 0.309 0.667 0.175 0.223-0.13 0.314-0.44 0.176-0.664-0.522-0.837-1.314-1.684-2.396-1.494-0.65 0.113-1.159 0.625-1.531 1.135-0.085 0.115-0.166 0.235-0.232 0.359-0.124 0.232-0.059 0.528 0.176 0.664 0.219 0.125 0.543 0.055 0.667-0.176z"></path>
<path fill="#1c1c24" style="fill: var(--color1, #1c1c24)" d="M25.879 12.867c0.042-0.079 0.091-0.155 0.142-0.23 0.024-0.036 0.049-0.071 0.075-0.107 0.015-0.019 0.029-0.039 0.042-0.058 0.036-0.049-0.081 0.099-0.008 0.013 0.072-0.086 0.145-0.17 0.226-0.249 0.042-0.042 0.086-0.083 0.132-0.12 0.016-0.015 0.098-0.079 0.031-0.027s0.024-0.018 0.046-0.031c0.050-0.034 0.102-0.066 0.156-0.095 0.028-0.015 0.055-0.028 0.081-0.040 0.057-0.029-0.107 0.034 0.005 0 0.059-0.018 0.119-0.032 0.179-0.047 0.081-0.019-0.109 0.005-0.024 0.003 0.036 0 0.072-0.005 0.109-0.003 0.033 0 0.065 0.006 0.098 0.006 0.062 0-0.102-0.028-0.046-0.005 0.013 0.005 0.029 0.005 0.042 0.008 0.034 0.010 0.068 0.018 0.101 0.027 0.015 0.005 0.029 0.011 0.044 0.015 0.094 0.028-0.059-0.037-0.013-0.006 0.076 0.052 0.164 0.089 0.242 0.142 0.016 0.011 0.031 0.023 0.046 0.034-0.083-0.063-0.006-0.003 0.010 0.011 0.042 0.039 0.086 0.076 0.127 0.117 0.213 0.212 0.327 0.377 0.493 0.641 0.138 0.222 0.436 0.309 0.666 0.175 0.223-0.13 0.314-0.44 0.176-0.664-0.506-0.809-1.271-1.624-2.318-1.441-0.629 0.11-1.118 0.604-1.479 1.096-0.081 0.11-0.158 0.225-0.223 0.345-0.124 0.232-0.059 0.528 0.176 0.664 0.223 0.13 0.546 0.060 0.67-0.173z"></path>
<path fill="none" stroke="#1c1c24" style="stroke: var(--color1, #1c1c24)" stroke-linejoin="miter" stroke-linecap="butt" stroke-miterlimit="10" stroke-width="0.5565" d="M14.779 17.769l-5.045-0.162"></path>
<path fill="none" stroke="#1c1c24" style="stroke: var(--color1, #1c1c24)" stroke-linejoin="miter" stroke-linecap="butt" stroke-miterlimit="10" stroke-width="0.5565" d="M14.862 19.501l-4.38 0.648"></path>
<path fill="none" stroke="#1c1c24" style="stroke: var(--color1, #1c1c24)" stroke-linejoin="miter" stroke-linecap="butt" stroke-miterlimit="10" stroke-width="0.5565" d="M28.068 17.022l5.045-0.162"></path>
<path fill="none" stroke="#1c1c24" style="stroke: var(--color1, #1c1c24)" stroke-linejoin="miter" stroke-linecap="butt" stroke-miterlimit="10" stroke-width="0.5565" d="M27.986 18.748l4.38 0.646"></path>
<path fill="none" stroke="#1c1c24" style="stroke: var(--color1, #1c1c24)" stroke-linejoin="miter" stroke-linecap="butt" stroke-miterlimit="10" stroke-width="0.5565" d="M20.851 18.971c0 0 2.44 3.364 4.505-0.061"></path>
<path fill="none" stroke="#1c1c24" style="stroke: var(--color1, #1c1c24)" stroke-linejoin="miter" stroke-linecap="butt" stroke-miterlimit="10" stroke-width="0.5565" d="M23.124 16.457v3.8"></path>
<path fill="#1c1c24" style="fill: var(--color1, #1c1c24)" d="M23.079 16.628c1.022 0 1.85-0.581 1.85-1.298s-0.828-1.298-1.85-1.298c-1.022 0-1.85 0.581-1.85 1.298s0.828 1.298 1.85 1.298z"></path>
<path fill="#1c1c24" style="fill: var(--color1, #1c1c24); stroke: var(--color1, #1c1c24)" stroke="#1c1c24" stroke-linejoin="miter" stroke-linecap="butt" stroke-miterlimit="10" stroke-width="0.5565" d="M6.873 14.791c1.64-1.692-3.603-5.242-3.99-5.394-0.016-0.006-1.491 6.638-1.415 10.638 0.018 0.934 0.195 1.907 0.195 1.907 0.307 0.272 0.508 1.148 2.807 0.029 1.286-0.627 1.54-1.902 0.369-2.148-2.252-0.471 0.006-0.973-0.363-1.863-0.932-2.247 0.671-1.389 2.396-3.168z"></path>
<path fill="#1c1c24" style="fill: var(--color1, #1c1c24); stroke: var(--color1, #1c1c24)" stroke="#1c1c24" stroke-linejoin="miter" stroke-linecap="butt" stroke-miterlimit="10" stroke-width="0.5565" d="M29.15 21.39c0.19-1.99 2.058-1.428 2.058-1.428 0.621 3.632-1.552 6.099-3.119 6.962-0.38 0-0.745-2.22 0.11-2.504s0.761-1.041 0.951-3.031z"></path>
</symbol>
</defs>
</svg>
